<svg xmlns="http://www.w3.org/2000/svg" xmlns:xlink="http://www.w3.org/1999/xlink" version="1.1" x="0" y="0" width="250" height="220" viewBox="0 0 93.9 220.8" enable-background="new 0 0 93.94 220.815" xml:space="preserve">
  <g id="lamp_container">
    <g id="light">
      <circle class="rond" cx="45" cy="178" r="72" stroke-width="3"/>
      <path class="glow" fill="none" stroke="#dddddd" stroke-width="4" stroke-miterlimit="10" d="M53.3 103l0.2 25.8c0 0 17.3 34.8 11.8 45.7 -0.2 0.5-0.7 0.9-1.2 1.3 -0.5 0.4-1.2 0.8-1.9 1.1 -10.1 4.3-20.6 3.8-31.1-0.3 -1.4-0.5-2.7-1.1-3.1-1.9 -5.3-10.6 11.8-45.9 11.8-45.9l0.4-25.8H53.3z"/>
    </g>
    <g class="onderkant">
      <path class="line" fill="#666666" d="M34.5 78.1c0-1.7 1.3-3 3-3h18.8c1.7 0 3 1.3 3 3l0 0c0 1.7-1.3 3-3 3H37.5C35.9 81.1 34.5 79.8 34.5 78.1L34.5 78.1zM28 86.5c0-1.7 1.3-3 3-3h30.9c1.7 0 3 1.3 3 3l0 0c0 1.7-1.3 3-3 3H31.1C29.4 89.6 28 88.2 28 86.5L28 86.5zM27.4 94.7c0-1.5 1.2-2.6 2.7-2.6h32.7c1.5 0 2.7 1.2 2.7 2.6l0 0c0 1.5-1.2 2.6-2.7 2.6H30.2C28.7 97.4 27.4 96.2 27.4 94.7L27.4 94.7z"/>
    </g>
    <g id="rope">
      <line class="touw" fill="none" stroke="#0F1223" stroke-width="5" stroke-miterlimit="10" x1="47" y1="0" x2="47" y2="71.1"/>
    </g>
    <g id="lamp">
      <path fill="none" stroke="#dddddd" stroke-width="4" stroke-miterlimit="10" d="M26 121.2l-0.1-13.9c0-2.4 1.5-4.3 3.8-4.3h34.8c2.3 0 3.4 1.9 3.4 4.3l0.3 13.8v0.3c0 0 0.6 3.1 3.2 6.2 14.8 16 25.5 38.8 18 61.1 -1.4 4.2-3.3 8.1-5.8 11.7 -2.5 3.6-5.7 6.8-9.4 9.5 -1.4 1.1-3.8 2.6-6.1 4 -8.8 4.6-19.1 5.9-28.8 4.3 -4.9-0.8-9.6-2.3-14-4.6 -9.6-4.7-16.2-12.6-19.8-21.9 -1.8-4.6-2.9-9.6-3.2-14.6 -2.3-19.3 9.8-34.7 20.8-49.3 2.4-3.2 2.8-6.3 2.8-6.3L26 121.2z"/>
    </g>
  </g>
  <script xlink:href="js/inview.js"/>
</svg>

